<svg width="13" height="13" viewBox="0 0 13 13" fill="none" xmlns="http://www.w3.org/2000/svg">
<path id="Stroke 2" d="M2.59397 1.40603L2 0.812061L0.812061 2L1.40603 2.59397L2.59397 1.40603ZM10.406 11.594L11 12.1879L12.1879 11L11.594 10.406L10.406 11.594ZM1.40603 10.406L0.812061 11L2 12.1879L2.59397 11.594L1.40603 10.406ZM11.594 2.59397L12.1879 2L11 0.812061L10.406 1.40603L11.594 2.59397ZM1.40603 2.59397L10.406 11.594L11.594 10.406L2.59397 1.40603L1.40603 2.59397ZM2.59397 11.594L11.594 2.59397L10.406 1.40603L1.40603 10.406L2.59397 11.594Z" fill="#252B33"/>
</svg>
