<svg width="48" height="48" viewBox="0 0 48 48" fill="none" xmlns="http://www.w3.org/2000/svg">
<g id="alert">
<path id="Path" d="M24 0C10.7659 0 0 10.7659 0 24C0 37.2341 10.7659 48 24 48C37.2341 48 48 37.2341 48 24C48 10.7659 37.2341 0 24 0Z" fill="#E06363"/>
<path id="Path_2" d="M25.9998 35.9999C25.9998 37.1044 25.1044 37.9998 23.9999 37.9998C22.8954 37.9998 22 37.1044 22 35.9999C22 34.8954 22.8954 34 23.9999 34C25.1044 34 25.9998 34.8954 25.9998 35.9999Z" fill="#ECEFF1"/>
<path id="Path_3" d="M25.9998 28C25.9998 29.1038 25.104 29.9999 23.9999 29.9999C22.8958 29.9999 22 29.1038 22 28V11.9999C22 10.8958 22.8958 10 23.9999 10C25.104 10 25.9998 10.8958 25.9998 11.9999V28Z" fill="#FAFAFA"/>
</g>
</svg>
