<svg width="70" height="67" viewBox="0 0 70 67" fill="none" xmlns="http://www.w3.org/2000/svg">
<g id="Group 3">
<rect id="Rectangle" x="1" y="16" width="50" height="50" stroke="#DEE4F4" stroke-dasharray="4"/>
<g id="iconfinder_159_Twitter_Image_Picture_5172498 (1)">
<g id="Group">
<circle id="Oval" cx="33.2791" cy="14.3953" r="4.46512" fill="white"/>
<path id="Shape" fill-rule="evenodd" clip-rule="evenodd" d="M56.7209 25.5581L69 36.7209V1H21V49L40.5349 29.4651L46.6744 35.6047L56.7209 25.5581ZM33.2791 9.93023C35.7449 9.93023 37.7442 11.9295 37.7442 14.3953C37.7442 16.8612 35.7449 18.8605 33.2791 18.8605C30.8132 18.8605 28.814 16.8612 28.814 14.3953C28.814 11.9295 30.8132 9.93023 33.2791 9.93023Z" fill="white"/>
<path id="Path" d="M68.9999 36.7209V49H59.5115V48.4418L46.6743 35.6046L56.7208 25.5581L68.9999 36.7209Z" fill="#EFF1FA"/>
<path id="Path_2" d="M59.5116 48.4418V49H21L40.5349 29.4651L46.6744 35.6046L59.5116 48.4418Z" fill="#EFF1FA"/>
</g>
<g id="Group_2">
<path id="Shape_2" fill-rule="evenodd" clip-rule="evenodd" d="M21.1111 50H68.8889C69.5024 50 70 49.5024 70 48.8889V1.11111C70 0.497445 69.5024 0 68.8889 0H21.1111C20.4974 0 20 0.497445 20 1.11111V48.8889C20 49.5024 20.4974 50 21.1111 50ZM67.7778 47.7778H22.2222V2.22222H67.7778V47.7778Z" fill="#EFF1FA"/>
<path id="Path_3" d="M21.1111 49.9999C20.8268 49.9999 20.5423 49.8914 20.3254 49.6745C19.8915 49.2406 19.8915 48.537 20.3254 48.103L39.7699 28.6586C40.2038 28.2248 40.9073 28.2248 41.3413 28.6586L60.2302 47.5475C60.6641 47.9814 60.6641 48.6849 60.2302 49.1189C59.7962 49.5527 59.0929 49.5527 58.6587 49.1189L40.5555 31.0158L21.8967 49.6745C21.6799 49.8914 21.3954 49.9999 21.1111 49.9999Z" fill="#DEE4F4"/>
<path id="Path_4" d="M68.8887 37.7777C68.6221 37.7777 68.3545 37.6824 68.1416 37.4887L56.7034 27.0903L47.4525 36.3412C47.0185 36.7749 46.3152 36.7749 45.8811 36.3412C45.4472 35.9073 45.4472 35.2037 45.8811 34.7697L55.8811 24.7697C56.3005 24.3504 56.9756 24.3344 57.4142 24.7333L69.6364 35.8444C70.0905 36.2572 70.124 36.9599 69.7112 37.4139C69.492 37.6552 69.1909 37.7777 68.8887 37.7777Z" fill="#DEE4F4"/>
<path id="Shape_3" fill-rule="evenodd" clip-rule="evenodd" d="M27.7778 14.4445C27.7778 17.5078 30.2701 20 33.3334 20C36.3967 20 38.8889 17.5078 38.8889 14.4445C38.8889 11.3811 36.3967 8.88892 33.3334 8.88892C30.2701 8.88892 27.7778 11.3811 27.7778 14.4445ZM30.0001 14.4445C30.0001 12.6065 31.4954 11.1111 33.3334 11.1111C35.1714 11.1111 36.6667 12.6065 36.6667 14.4445C36.6667 16.2825 35.1714 17.7778 33.3334 17.7778C31.4954 17.7778 30.0001 16.2825 30.0001 14.4445Z" fill="#DEE4F4"/>
</g>
</g>
</g>
</svg>
